<mxfile host="app.diagrams.net" agent="Mozilla/5.0 (X11; Linux x86_64; rv:130.0) Gecko/20100101 Firefox/130.0" version="24.8.3">
  <diagram name="Page-1" id="4D_AGqtlfxJe_hZL3-C8">
    <mxGraphModel dx="1050" dy="525" grid="1" gridSize="10" guides="1" tooltips="1" connect="1" arrows="1" fold="1" page="1" pageScale="1" pageWidth="850" pageHeight="1100" math="0" shadow="0">
      <root>
        <mxCell id="0" />
        <mxCell id="1" parent="0" />
        <mxCell id="CKyfuqn40MLym8_7knzS-2" value="CHIP-8" style="rounded=0;whiteSpace=wrap;html=1;direction=south;fillColor=#f5f5f5;fontColor=#333333;strokeColor=#666666;" parent="1" vertex="1">
          <mxGeometry x="130" y="120" width="60" height="120" as="geometry" />
        </mxCell>
        <mxCell id="CKyfuqn40MLym8_7knzS-3" value="&lt;div&gt;Program&lt;br&gt;memory&lt;/div&gt;&lt;div&gt;4095 bytes&lt;br&gt;&lt;/div&gt;" style="rounded=0;whiteSpace=wrap;html=1;direction=south;fillColor=#f8cecc;strokeColor=#b85450;" parent="1" vertex="1">
          <mxGeometry x="360" y="80" width="90" height="200" as="geometry" />
        </mxCell>
        <mxCell id="CKyfuqn40MLym8_7knzS-10" value="&lt;div&gt;BUS&lt;/div&gt;" style="rounded=0;whiteSpace=wrap;html=1;direction=south;fillColor=#f5f5f5;strokeColor=#666666;fontColor=#333333;" parent="1" vertex="1">
          <mxGeometry x="250" y="85" width="30" height="295" as="geometry" />
        </mxCell>
        <mxCell id="CKyfuqn40MLym8_7knzS-16" value="" style="endArrow=classic;startArrow=classic;html=1;rounded=0;entryX=0.329;entryY=0.9;entryDx=0;entryDy=0;entryPerimeter=0;" parent="1" source="CKyfuqn40MLym8_7knzS-2" target="CKyfuqn40MLym8_7knzS-10" edge="1">
          <mxGeometry width="50" height="50" relative="1" as="geometry">
            <mxPoint x="400" y="300" as="sourcePoint" />
            <mxPoint x="450" y="250" as="targetPoint" />
          </mxGeometry>
        </mxCell>
        <mxCell id="CKyfuqn40MLym8_7knzS-17" value="" style="endArrow=classic;startArrow=classic;html=1;rounded=0;exitX=0.325;exitY=-0.067;exitDx=0;exitDy=0;exitPerimeter=0;entryX=0;entryY=0.25;entryDx=0;entryDy=0;" parent="1" source="CKyfuqn40MLym8_7knzS-10" target="CKyfuqn40MLym8_7knzS-24" edge="1">
          <mxGeometry width="50" height="50" relative="1" as="geometry">
            <mxPoint x="290" y="180" as="sourcePoint" />
            <mxPoint x="450" y="250" as="targetPoint" />
            <Array as="points">
              <mxPoint x="320" y="180" />
              <mxPoint x="320" y="85" />
            </Array>
          </mxGeometry>
        </mxCell>
        <mxCell id="CKyfuqn40MLym8_7knzS-19" value="" style="swimlane;startSize=0;" parent="1" vertex="1">
          <mxGeometry x="110" y="20" width="690" height="420" as="geometry" />
        </mxCell>
        <mxCell id="CKyfuqn40MLym8_7knzS-20" value="&lt;font style=&quot;font-size: 16px;&quot;&gt;MACHINE&lt;/font&gt;" style="text;html=1;align=center;verticalAlign=middle;whiteSpace=wrap;rounded=0;" parent="CKyfuqn40MLym8_7knzS-19" vertex="1">
          <mxGeometry x="272.5" y="10" width="145" height="30" as="geometry" />
        </mxCell>
        <mxCell id="CKyfuqn40MLym8_7knzS-21" value="&lt;div&gt;Fontset&lt;/div&gt;&lt;div&gt;80 bytes&lt;br&gt;&lt;/div&gt;" style="whiteSpace=wrap;html=1;aspect=fixed;fillColor=#f5f5f5;strokeColor=#666666;fontColor=#333333;" parent="CKyfuqn40MLym8_7knzS-19" vertex="1">
          <mxGeometry x="590" y="60" width="80" height="80" as="geometry" />
        </mxCell>
        <mxCell id="CKyfuqn40MLym8_7knzS-24" value="Free 80 bytes" style="rounded=0;whiteSpace=wrap;html=1;fillColor=#fff2cc;strokeColor=#d6b656;" parent="CKyfuqn40MLym8_7knzS-19" vertex="1">
          <mxGeometry x="250" y="60" width="90" height="20" as="geometry" />
        </mxCell>
        <mxCell id="CKyfuqn40MLym8_7knzS-5" value="&lt;div&gt;Display Memory&lt;/div&gt;&lt;div&gt;256 bytes&lt;br&gt;&lt;/div&gt;" style="rounded=0;whiteSpace=wrap;html=1;direction=south;fillColor=#dae8fc;strokeColor=#6c8ebf;" parent="CKyfuqn40MLym8_7knzS-19" vertex="1">
          <mxGeometry x="250" y="330" width="90" height="80" as="geometry" />
        </mxCell>
        <mxCell id="CKyfuqn40MLym8_7knzS-4" value="&lt;div&gt;IO Registers&lt;/div&gt;&lt;div&gt;2 bytes&lt;br&gt;&lt;/div&gt;" style="rounded=0;whiteSpace=wrap;html=1;direction=south;fillColor=#e1d5e7;strokeColor=#9673a6;" parent="CKyfuqn40MLym8_7knzS-19" vertex="1">
          <mxGeometry x="250" y="300" width="90" height="30" as="geometry" />
        </mxCell>
        <mxCell id="CKyfuqn40MLym8_7knzS-27" value="&lt;div&gt;&lt;font style=&quot;font-size: 12px;&quot;&gt;MAIN MEMORY&lt;/font&gt;&lt;/div&gt;" style="text;html=1;align=center;verticalAlign=middle;whiteSpace=wrap;rounded=0;rotation=90;" parent="CKyfuqn40MLym8_7knzS-19" vertex="1">
          <mxGeometry x="260" y="146" width="194" height="30" as="geometry" />
        </mxCell>
        <mxCell id="CKyfuqn40MLym8_7knzS-28" value="AUXILIAR MEMORY" style="text;html=1;align=center;verticalAlign=middle;whiteSpace=wrap;rounded=0;rotation=90;" parent="CKyfuqn40MLym8_7knzS-19" vertex="1">
          <mxGeometry x="292" y="320" width="130" height="30" as="geometry" />
        </mxCell>
        <mxCell id="CKyfuqn40MLym8_7knzS-30" value="&lt;span style=&quot;background-color: rgb(255, 242, 204);&quot;&gt;0x0000 to 0x004F&lt;/span&gt; is free" style="text;html=1;align=center;verticalAlign=middle;whiteSpace=wrap;rounded=0;" parent="CKyfuqn40MLym8_7knzS-19" vertex="1">
          <mxGeometry x="390" y="219" width="150" height="30" as="geometry" />
        </mxCell>
        <mxCell id="CKyfuqn40MLym8_7knzS-31" value="&lt;span style=&quot;background-color: rgb(255, 230, 204);&quot;&gt;0x0050 to 0x01FF&lt;/span&gt; is where the fontset is loaded" style="text;html=1;align=center;verticalAlign=middle;whiteSpace=wrap;rounded=0;" parent="CKyfuqn40MLym8_7knzS-19" vertex="1">
          <mxGeometry x="390" y="249" width="270" height="30" as="geometry" />
        </mxCell>
        <mxCell id="CKyfuqn40MLym8_7knzS-32" value="&lt;span style=&quot;background-color: rgb(248, 206, 204);&quot;&gt;0x0200 to 0x0FFF&lt;/span&gt; is where the main program is loaded" style="text;html=1;align=center;verticalAlign=middle;whiteSpace=wrap;rounded=0;" parent="CKyfuqn40MLym8_7knzS-19" vertex="1">
          <mxGeometry x="390" y="279" width="270" height="30" as="geometry" />
        </mxCell>
        <mxCell id="CKyfuqn40MLym8_7knzS-33" value="&lt;span style=&quot;background-color: rgb(225, 213, 231);&quot;&gt;0x1001 and 0x1002&lt;/span&gt; are the IO registers" style="text;html=1;align=center;verticalAlign=middle;whiteSpace=wrap;rounded=0;" parent="CKyfuqn40MLym8_7knzS-19" vertex="1">
          <mxGeometry x="390" y="333" width="226" height="30" as="geometry" />
        </mxCell>
        <mxCell id="CKyfuqn40MLym8_7knzS-34" value="&lt;span style=&quot;background-color: rgb(218, 232, 252);&quot;&gt;0x1003 to 0x1102&lt;/span&gt; is where the CPU writes the display memory" style="text;html=1;align=center;verticalAlign=middle;whiteSpace=wrap;rounded=0;" parent="CKyfuqn40MLym8_7knzS-19" vertex="1">
          <mxGeometry x="394" y="363" width="256" height="30" as="geometry" />
        </mxCell>
        <mxCell id="CKyfuqn40MLym8_7knzS-35" value="" style="swimlane;startSize=0;" parent="CKyfuqn40MLym8_7knzS-19" vertex="1">
          <mxGeometry x="380" y="179" width="290" height="231" as="geometry" />
        </mxCell>
        <mxCell id="CKyfuqn40MLym8_7knzS-36" value="&lt;font style=&quot;font-size: 14px;&quot;&gt;&lt;b&gt;Memory addresses&lt;/b&gt;&lt;/font&gt;" style="text;html=1;align=center;verticalAlign=middle;whiteSpace=wrap;rounded=0;" parent="CKyfuqn40MLym8_7knzS-35" vertex="1">
          <mxGeometry x="20" y="10" width="260" height="30" as="geometry" />
        </mxCell>
        <mxCell id="CKyfuqn40MLym8_7knzS-37" value="&lt;font style=&quot;font-size: 10px;&quot;&gt;The fontset is located in the machine and is loaded into memory in the startup&lt;br&gt;&lt;/font&gt;" style="text;html=1;align=center;verticalAlign=middle;whiteSpace=wrap;rounded=0;" parent="CKyfuqn40MLym8_7knzS-19" vertex="1">
          <mxGeometry x="480" y="50" width="100" height="70" as="geometry" />
        </mxCell>
        <mxCell id="9X25KGDi4Vs4ZDTUFVfp-1" value="&lt;div&gt;Status register &lt;br&gt;&lt;/div&gt;&lt;div&gt;1 byte&lt;/div&gt;" style="rounded=0;whiteSpace=wrap;html=1;fillColor=#d5e8d4;strokeColor=#82b366;" parent="CKyfuqn40MLym8_7knzS-19" vertex="1">
          <mxGeometry x="250" y="270" width="90" height="30" as="geometry" />
        </mxCell>
        <mxCell id="9X25KGDi4Vs4ZDTUFVfp-2" value="&lt;span style=&quot;background-color: rgb(213, 232, 212);&quot;&gt;0x1000&lt;/span&gt; is the Machine Status register" style="text;html=1;align=center;verticalAlign=middle;whiteSpace=wrap;rounded=0;" parent="CKyfuqn40MLym8_7knzS-19" vertex="1">
          <mxGeometry x="394" y="309" width="206" height="30" as="geometry" />
        </mxCell>
        <mxCell id="MwBcDiFLGW71TJdP4f_E-1" value="Control signal" style="text;html=1;align=center;verticalAlign=middle;whiteSpace=wrap;rounded=0;rotation=90;" vertex="1" parent="CKyfuqn40MLym8_7knzS-19">
          <mxGeometry x="20" y="327.75" width="90" height="14.5" as="geometry" />
        </mxCell>
        <mxCell id="CKyfuqn40MLym8_7knzS-25" value="Font memory&lt;br&gt;336 bytes" style="rounded=0;whiteSpace=wrap;html=1;fillColor=#ffe6cc;strokeColor=#d79b00;" parent="1" vertex="1">
          <mxGeometry x="360" y="100" width="90" height="40" as="geometry" />
        </mxCell>
        <mxCell id="CKyfuqn40MLym8_7knzS-26" value="" style="endArrow=classic;html=1;rounded=0;entryX=0;entryY=0;entryDx=0;entryDy=0;" parent="1" target="9X25KGDi4Vs4ZDTUFVfp-1" edge="1">
          <mxGeometry width="50" height="50" relative="1" as="geometry">
            <mxPoint x="320" y="180" as="sourcePoint" />
            <mxPoint x="450" y="250" as="targetPoint" />
            <Array as="points">
              <mxPoint x="320" y="290" />
              <mxPoint x="340" y="290" />
            </Array>
          </mxGeometry>
        </mxCell>
        <mxCell id="CKyfuqn40MLym8_7knzS-38" value="" style="endArrow=classic;html=1;rounded=0;entryX=0;entryY=0.5;entryDx=0;entryDy=0;exitX=0;exitY=0.75;exitDx=0;exitDy=0;" parent="1" source="CKyfuqn40MLym8_7knzS-21" target="CKyfuqn40MLym8_7knzS-10" edge="1">
          <mxGeometry width="50" height="50" relative="1" as="geometry">
            <mxPoint x="400" y="300" as="sourcePoint" />
            <mxPoint x="320" y="180" as="targetPoint" />
            <Array as="points">
              <mxPoint x="520" y="140" />
              <mxPoint x="520" y="70" />
              <mxPoint x="320" y="70" />
              <mxPoint x="265" y="70" />
            </Array>
          </mxGeometry>
        </mxCell>
        <mxCell id="9X25KGDi4Vs4ZDTUFVfp-4" value="1" style="rounded=1;whiteSpace=wrap;html=1;fontStyle=1;fontSize=16;" parent="1" vertex="1">
          <mxGeometry x="61" y="514" width="30" height="30" as="geometry" />
        </mxCell>
        <mxCell id="9X25KGDi4Vs4ZDTUFVfp-5" value="2" style="rounded=1;whiteSpace=wrap;html=1;fontStyle=1;fontSize=16;" parent="1" vertex="1">
          <mxGeometry x="91" y="514" width="30" height="30" as="geometry" />
        </mxCell>
        <mxCell id="9X25KGDi4Vs4ZDTUFVfp-6" value="3" style="rounded=1;whiteSpace=wrap;html=1;fontStyle=1;fontSize=16;" parent="1" vertex="1">
          <mxGeometry x="121" y="514" width="30" height="30" as="geometry" />
        </mxCell>
        <mxCell id="9X25KGDi4Vs4ZDTUFVfp-7" value="C" style="rounded=1;whiteSpace=wrap;html=1;fontStyle=1;fontSize=16;" parent="1" vertex="1">
          <mxGeometry x="151" y="514" width="30" height="30" as="geometry" />
        </mxCell>
        <mxCell id="9X25KGDi4Vs4ZDTUFVfp-9" value="4" style="rounded=1;whiteSpace=wrap;html=1;fontStyle=1;fontSize=16;" parent="1" vertex="1">
          <mxGeometry x="61" y="544" width="30" height="30" as="geometry" />
        </mxCell>
        <mxCell id="9X25KGDi4Vs4ZDTUFVfp-10" value="5" style="rounded=1;whiteSpace=wrap;html=1;fontStyle=1;fontSize=16;" parent="1" vertex="1">
          <mxGeometry x="91" y="544" width="30" height="30" as="geometry" />
        </mxCell>
        <mxCell id="9X25KGDi4Vs4ZDTUFVfp-11" value="6" style="rounded=1;whiteSpace=wrap;html=1;fontStyle=1;fontSize=16;" parent="1" vertex="1">
          <mxGeometry x="121" y="544" width="30" height="30" as="geometry" />
        </mxCell>
        <mxCell id="9X25KGDi4Vs4ZDTUFVfp-12" value="D" style="rounded=1;whiteSpace=wrap;html=1;fontStyle=1;fontSize=16;" parent="1" vertex="1">
          <mxGeometry x="151" y="544" width="30" height="30" as="geometry" />
        </mxCell>
        <mxCell id="9X25KGDi4Vs4ZDTUFVfp-13" value="7" style="rounded=1;whiteSpace=wrap;html=1;fontStyle=1;fontSize=16;" parent="1" vertex="1">
          <mxGeometry x="61" y="574" width="30" height="30" as="geometry" />
        </mxCell>
        <mxCell id="9X25KGDi4Vs4ZDTUFVfp-14" value="8" style="rounded=1;whiteSpace=wrap;html=1;fontStyle=1;fontSize=16;" parent="1" vertex="1">
          <mxGeometry x="91" y="574" width="30" height="30" as="geometry" />
        </mxCell>
        <mxCell id="9X25KGDi4Vs4ZDTUFVfp-15" value="9" style="rounded=1;whiteSpace=wrap;html=1;fontStyle=1;fontSize=16;" parent="1" vertex="1">
          <mxGeometry x="121" y="574" width="30" height="30" as="geometry" />
        </mxCell>
        <mxCell id="9X25KGDi4Vs4ZDTUFVfp-16" value="E" style="rounded=1;whiteSpace=wrap;html=1;fontStyle=1;fontSize=16;" parent="1" vertex="1">
          <mxGeometry x="151" y="574" width="30" height="30" as="geometry" />
        </mxCell>
        <mxCell id="9X25KGDi4Vs4ZDTUFVfp-17" value="A" style="rounded=1;whiteSpace=wrap;html=1;fontStyle=1;fontSize=16;" parent="1" vertex="1">
          <mxGeometry x="61" y="604" width="30" height="30" as="geometry" />
        </mxCell>
        <mxCell id="9X25KGDi4Vs4ZDTUFVfp-18" value="0" style="rounded=1;whiteSpace=wrap;html=1;fontStyle=1;fontSize=16;" parent="1" vertex="1">
          <mxGeometry x="91" y="604" width="30" height="30" as="geometry" />
        </mxCell>
        <mxCell id="9X25KGDi4Vs4ZDTUFVfp-19" value="B" style="rounded=1;whiteSpace=wrap;html=1;fontStyle=1;fontSize=16;" parent="1" vertex="1">
          <mxGeometry x="121" y="604" width="30" height="30" as="geometry" />
        </mxCell>
        <mxCell id="9X25KGDi4Vs4ZDTUFVfp-20" value="F" style="rounded=1;whiteSpace=wrap;html=1;fontStyle=1;fontSize=16;" parent="1" vertex="1">
          <mxGeometry x="151" y="604" width="30" height="30" as="geometry" />
        </mxCell>
        <mxCell id="9X25KGDi4Vs4ZDTUFVfp-21" value="" style="swimlane;startSize=0;" parent="1" vertex="1">
          <mxGeometry x="42" y="469" width="165" height="180" as="geometry" />
        </mxCell>
        <mxCell id="9X25KGDi4Vs4ZDTUFVfp-23" value="&lt;div style=&quot;font-size: 16px;&quot;&gt;KEYBOARD&lt;br&gt;&lt;/div&gt;" style="text;html=1;align=center;verticalAlign=middle;whiteSpace=wrap;rounded=0;" parent="9X25KGDi4Vs4ZDTUFVfp-21" vertex="1">
          <mxGeometry y="2" width="160" height="30" as="geometry" />
        </mxCell>
        <mxCell id="9X25KGDi4Vs4ZDTUFVfp-24" value="" style="endArrow=classic;html=1;rounded=0;exitX=0.5;exitY=0;exitDx=0;exitDy=0;" parent="1" source="9X25KGDi4Vs4ZDTUFVfp-21" edge="1">
          <mxGeometry width="50" height="50" relative="1" as="geometry">
            <mxPoint x="170" y="469" as="sourcePoint" />
            <mxPoint x="260" y="380" as="targetPoint" />
            <Array as="points">
              <mxPoint x="125" y="450" />
              <mxPoint x="260" y="450" />
            </Array>
          </mxGeometry>
        </mxCell>
        <mxCell id="9X25KGDi4Vs4ZDTUFVfp-28" value="" style="endArrow=none;html=1;rounded=1;curved=0;strokeWidth=2;" parent="1" edge="1">
          <mxGeometry width="50" height="50" relative="1" as="geometry">
            <mxPoint x="353" y="520" as="sourcePoint" />
            <mxPoint x="383" y="490" as="targetPoint" />
          </mxGeometry>
        </mxCell>
        <mxCell id="9X25KGDi4Vs4ZDTUFVfp-30" value="" style="swimlane;startSize=0;" parent="1" vertex="1">
          <mxGeometry x="216" y="470" width="187" height="181" as="geometry" />
        </mxCell>
        <mxCell id="9X25KGDi4Vs4ZDTUFVfp-29" value="&lt;font style=&quot;font-size: 16px;&quot;&gt;DISPLAY&lt;/font&gt;" style="text;html=1;align=center;verticalAlign=middle;whiteSpace=wrap;rounded=0;" parent="9X25KGDi4Vs4ZDTUFVfp-30" vertex="1">
          <mxGeometry y="1" width="180" height="30" as="geometry" />
        </mxCell>
        <mxCell id="9X25KGDi4Vs4ZDTUFVfp-26" value="" style="rounded=0;whiteSpace=wrap;html=1;strokeWidth=2;fillColor=#D6D6D6;" parent="9X25KGDi4Vs4ZDTUFVfp-30" vertex="1">
          <mxGeometry x="7" y="41" width="160" height="109" as="geometry" />
        </mxCell>
        <mxCell id="9X25KGDi4Vs4ZDTUFVfp-33" value="" style="ellipse;whiteSpace=wrap;html=1;aspect=fixed;strokeWidth=2;fillColor=#CCCCCC;" parent="9X25KGDi4Vs4ZDTUFVfp-30" vertex="1">
          <mxGeometry x="117" y="50.5" width="40" height="40" as="geometry" />
        </mxCell>
        <mxCell id="9X25KGDi4Vs4ZDTUFVfp-27" value="" style="rounded=1;whiteSpace=wrap;html=1;strokeWidth=2;fillColor=#F5F5F5;" parent="9X25KGDi4Vs4ZDTUFVfp-30" vertex="1">
          <mxGeometry x="17" y="50.5" width="90" height="90" as="geometry" />
        </mxCell>
        <mxCell id="9X25KGDi4Vs4ZDTUFVfp-34" value="" style="endArrow=classic;html=1;rounded=0;exitX=0.5;exitY=0;exitDx=0;exitDy=0;" parent="1" source="9X25KGDi4Vs4ZDTUFVfp-30" edge="1">
          <mxGeometry width="50" height="50" relative="1" as="geometry">
            <mxPoint x="430" y="410" as="sourcePoint" />
            <mxPoint x="265" y="380" as="targetPoint" />
            <Array as="points">
              <mxPoint x="310" y="450" />
              <mxPoint x="265" y="450" />
            </Array>
          </mxGeometry>
        </mxCell>
        <mxCell id="otx0g9Ia41AGNoTNmWjt-8" value="" style="swimlane;startSize=0;" parent="1" vertex="1">
          <mxGeometry x="411" y="470" width="180" height="185" as="geometry" />
        </mxCell>
        <mxCell id="otx0g9Ia41AGNoTNmWjt-9" value="&lt;font style=&quot;font-size: 16px;&quot;&gt;SOUND&lt;/font&gt;" style="text;html=1;align=center;verticalAlign=middle;whiteSpace=wrap;rounded=0;" parent="otx0g9Ia41AGNoTNmWjt-8" vertex="1">
          <mxGeometry y="1" width="180" height="30" as="geometry" />
        </mxCell>
        <mxCell id="otx0g9Ia41AGNoTNmWjt-26" value="" style="triangle;whiteSpace=wrap;html=1;direction=west;fillColor=#D6D6D6;" parent="otx0g9Ia41AGNoTNmWjt-8" vertex="1">
          <mxGeometry x="65" y="54" width="39" height="80" as="geometry" />
        </mxCell>
        <mxCell id="otx0g9Ia41AGNoTNmWjt-28" value="" style="rounded=1;whiteSpace=wrap;html=1;direction=south;fillColor=#D6D6D6;strokeColor=default;" parent="otx0g9Ia41AGNoTNmWjt-8" vertex="1">
          <mxGeometry x="108.25" y="71.25" width="5.5" height="45.5" as="geometry" />
        </mxCell>
        <mxCell id="otx0g9Ia41AGNoTNmWjt-29" value="" style="rounded=1;whiteSpace=wrap;html=1;direction=south;fillColor=#D6D6D6;strokeColor=default;" parent="otx0g9Ia41AGNoTNmWjt-8" vertex="1">
          <mxGeometry x="118.25" y="59" width="5.5" height="70" as="geometry" />
        </mxCell>
        <mxCell id="otx0g9Ia41AGNoTNmWjt-25" value="" style="whiteSpace=wrap;html=1;aspect=fixed;fillColor=#D6D6D6;strokeColor=none;" parent="otx0g9Ia41AGNoTNmWjt-8" vertex="1">
          <mxGeometry x="55" y="79" width="30" height="30" as="geometry" />
        </mxCell>
        <mxCell id="otx0g9Ia41AGNoTNmWjt-30" value="" style="endArrow=none;html=1;rounded=0;exitX=0.75;exitY=0;exitDx=0;exitDy=0;entryX=0;entryY=0;entryDx=0;entryDy=0;" parent="otx0g9Ia41AGNoTNmWjt-8" source="otx0g9Ia41AGNoTNmWjt-25" target="otx0g9Ia41AGNoTNmWjt-25" edge="1">
          <mxGeometry width="50" height="50" relative="1" as="geometry">
            <mxPoint x="29" y="50" as="sourcePoint" />
            <mxPoint x="79" as="targetPoint" />
          </mxGeometry>
        </mxCell>
        <mxCell id="otx0g9Ia41AGNoTNmWjt-31" value="" style="endArrow=none;html=1;rounded=0;exitX=0.75;exitY=1;exitDx=0;exitDy=0;entryX=0;entryY=1;entryDx=0;entryDy=0;" parent="otx0g9Ia41AGNoTNmWjt-8" source="otx0g9Ia41AGNoTNmWjt-25" target="otx0g9Ia41AGNoTNmWjt-25" edge="1">
          <mxGeometry width="50" height="50" relative="1" as="geometry">
            <mxPoint x="88" y="89" as="sourcePoint" />
            <mxPoint x="65" y="89" as="targetPoint" />
          </mxGeometry>
        </mxCell>
        <mxCell id="otx0g9Ia41AGNoTNmWjt-32" value="" style="endArrow=none;html=1;rounded=0;exitX=0;exitY=1;exitDx=0;exitDy=0;entryX=0;entryY=0;entryDx=0;entryDy=0;" parent="otx0g9Ia41AGNoTNmWjt-8" source="otx0g9Ia41AGNoTNmWjt-25" target="otx0g9Ia41AGNoTNmWjt-25" edge="1">
          <mxGeometry width="50" height="50" relative="1" as="geometry">
            <mxPoint x="88" y="119" as="sourcePoint" />
            <mxPoint x="65" y="119" as="targetPoint" />
          </mxGeometry>
        </mxCell>
        <mxCell id="otx0g9Ia41AGNoTNmWjt-10" value="" style="endArrow=classic;html=1;rounded=0;exitX=0.539;exitY=-0.022;exitDx=0;exitDy=0;exitPerimeter=0;entryX=1;entryY=0.25;entryDx=0;entryDy=0;" parent="1" source="otx0g9Ia41AGNoTNmWjt-8" target="CKyfuqn40MLym8_7knzS-10" edge="1">
          <mxGeometry width="50" height="50" relative="1" as="geometry">
            <mxPoint x="400" y="460" as="sourcePoint" />
            <mxPoint x="450" y="410" as="targetPoint" />
            <Array as="points">
              <mxPoint x="508" y="450" />
              <mxPoint x="320" y="450" />
              <mxPoint x="320" y="430" />
              <mxPoint x="273" y="430" />
            </Array>
          </mxGeometry>
        </mxCell>
        <mxCell id="otx0g9Ia41AGNoTNmWjt-12" value="" style="endArrow=classic;html=1;rounded=0;exitX=1;exitY=0.5;exitDx=0;exitDy=0;entryX=0.715;entryY=-0.017;entryDx=0;entryDy=0;entryPerimeter=0;" parent="1" source="CKyfuqn40MLym8_7knzS-2" target="9X25KGDi4Vs4ZDTUFVfp-21" edge="1">
          <mxGeometry width="50" height="50" relative="1" as="geometry">
            <mxPoint x="400" y="390" as="sourcePoint" />
            <mxPoint x="450" y="340" as="targetPoint" />
          </mxGeometry>
        </mxCell>
        <mxCell id="otx0g9Ia41AGNoTNmWjt-13" value="" style="swimlane;startSize=0;" parent="1" vertex="1">
          <mxGeometry x="610" y="450" width="200" height="270" as="geometry" />
        </mxCell>
        <mxCell id="otx0g9Ia41AGNoTNmWjt-14" value="&lt;font style=&quot;font-size: 14px;&quot;&gt;&lt;b style=&quot;background-color: rgb(213, 232, 212);&quot;&gt;Status Register&lt;/b&gt;&lt;/font&gt;" style="text;html=1;align=center;verticalAlign=middle;whiteSpace=wrap;rounded=0;" parent="otx0g9Ia41AGNoTNmWjt-13" vertex="1">
          <mxGeometry width="200" height="30" as="geometry" />
        </mxCell>
        <mxCell id="otx0g9Ia41AGNoTNmWjt-16" value="&lt;font style=&quot;font-size: 16px;&quot;&gt;XXXX XX10&lt;/font&gt;&lt;br&gt;x: unused&lt;br&gt;1: display flag&lt;br&gt;0: sound flag" style="text;html=1;align=left;verticalAlign=middle;whiteSpace=wrap;rounded=0;" parent="otx0g9Ia41AGNoTNmWjt-13" vertex="1">
          <mxGeometry x="25" y="30" width="150" height="76" as="geometry" />
        </mxCell>
        <mxCell id="otx0g9Ia41AGNoTNmWjt-18" value="&lt;font style=&quot;font-size: 16px;&quot;&gt;0123 4567&lt;/font&gt;&lt;br&gt;Stores the status of keys 0 to 7" style="text;html=1;align=left;verticalAlign=middle;whiteSpace=wrap;rounded=0;" parent="otx0g9Ia41AGNoTNmWjt-13" vertex="1">
          <mxGeometry x="25" y="135" width="175" height="49" as="geometry" />
        </mxCell>
        <mxCell id="otx0g9Ia41AGNoTNmWjt-19" value="&lt;span style=&quot;background-color: rgb(225, 213, 231); font-size: 14px;&quot;&gt;&lt;b&gt;IO Register 1&lt;br&gt;&lt;/b&gt;&lt;/span&gt;" style="text;html=1;align=center;verticalAlign=middle;whiteSpace=wrap;rounded=0;labelBackgroundColor=default;" parent="otx0g9Ia41AGNoTNmWjt-13" vertex="1">
          <mxGeometry y="111" width="200" height="30" as="geometry" />
        </mxCell>
        <mxCell id="otx0g9Ia41AGNoTNmWjt-20" value="&lt;span style=&quot;background-color: rgb(225, 213, 231); font-size: 14px;&quot;&gt;&lt;b&gt;IO Register 2&lt;br&gt;&lt;/b&gt;&lt;/span&gt;" style="text;html=1;align=center;verticalAlign=middle;whiteSpace=wrap;rounded=0;labelBackgroundColor=default;" parent="otx0g9Ia41AGNoTNmWjt-13" vertex="1">
          <mxGeometry y="190" width="200" height="30" as="geometry" />
        </mxCell>
        <mxCell id="otx0g9Ia41AGNoTNmWjt-21" value="&lt;font style=&quot;font-size: 16px;&quot;&gt;89AB CDEF&lt;/font&gt;&lt;br&gt;Stores the status of keys 8 to F" style="text;html=1;align=left;verticalAlign=middle;whiteSpace=wrap;rounded=0;" parent="otx0g9Ia41AGNoTNmWjt-13" vertex="1">
          <mxGeometry x="25" y="214" width="175" height="49" as="geometry" />
        </mxCell>
        <mxCell id="otx0g9Ia41AGNoTNmWjt-22" value="&lt;font style=&quot;font-size: 10px;&quot;&gt;The keyboard controller waits for the CHIP-8 signal that requests a keyboard scan, then writes the keyboard status to the IO Registers.&lt;br&gt;&lt;/font&gt;" style="text;html=1;align=center;verticalAlign=middle;whiteSpace=wrap;rounded=0;" parent="1" vertex="1">
          <mxGeometry x="42" y="651" width="170" height="70" as="geometry" />
        </mxCell>
        <mxCell id="otx0g9Ia41AGNoTNmWjt-23" value="&lt;div&gt;&lt;br&gt;&lt;/div&gt;&lt;div&gt;&lt;font style=&quot;font-size: 10px;&quot;&gt;The display checks if the display flag in the status register is set. If it is, it reads the display memory and displays every pixel in the screen. It operates at 60 Hz.&lt;br&gt;&lt;/font&gt;&lt;/div&gt;&lt;div&gt;&lt;font style=&quot;font-size: 10px;&quot;&gt;&lt;br&gt;&lt;/font&gt;&lt;/div&gt;" style="text;html=1;align=center;verticalAlign=middle;whiteSpace=wrap;rounded=0;" parent="1" vertex="1">
          <mxGeometry x="216" y="650" width="184" height="71" as="geometry" />
        </mxCell>
        <mxCell id="otx0g9Ia41AGNoTNmWjt-24" value="&lt;div&gt;&lt;br&gt;&lt;/div&gt;&lt;div&gt;&lt;font style=&quot;font-size: 10px;&quot;&gt;The machine checks if the sound flag in the status register is set. If it is, it emits a fixed frequency tone. The sound flag is set when the sound timer reaches 0. The sound timer is decremented at 60 Hz.&lt;br&gt;&lt;/font&gt;&lt;/div&gt;" style="text;html=1;align=center;verticalAlign=middle;whiteSpace=wrap;rounded=0;" parent="1" vertex="1">
          <mxGeometry x="411" y="649" width="184" height="71" as="geometry" />
        </mxCell>
      </root>
    </mxGraphModel>
  </diagram>
</mxfile>
